<svg xmlns="http://www.w3.org/2000/svg" xmlns:xlink="http://www.w3.org/1999/xlink" width="500" zoomAndPan="magnify" viewBox="0 0 375 89.999999" height="120" preserveAspectRatio="xMidYMid meet" version="1.0"><defs><g/></defs><g fill="#ffffff" fill-opacity="1"><g transform="translate(-4.771704, 86.581059)"><g><path d="M 6 0 L 6 -51.25 L 23.671875 -51.25 L 23.671875 -43.859375 L 23.875 -43.859375 C 24.007812 -44.128906 24.222656 -44.460938 24.515625 -44.859375 C 24.816406 -45.253906 25.46875 -45.953125 26.46875 -46.953125 C 27.46875 -47.953125 28.535156 -48.851562 29.671875 -49.65625 C 30.804688 -50.457031 32.269531 -51.171875 34.0625 -51.796875 C 35.863281 -52.429688 37.695312 -52.75 39.5625 -52.75 C 41.488281 -52.75 43.382812 -52.484375 45.25 -51.953125 C 47.125 -51.421875 48.492188 -50.890625 49.359375 -50.359375 L 50.75 -49.546875 L 43.359375 -34.5625 C 41.160156 -36.425781 38.097656 -37.359375 34.171875 -37.359375 C 32.035156 -37.359375 30.203125 -36.890625 28.671875 -35.953125 C 27.140625 -35.023438 26.054688 -33.894531 25.421875 -32.5625 C 24.796875 -31.238281 24.347656 -30.109375 24.078125 -29.171875 C 23.804688 -28.242188 23.671875 -27.507812 23.671875 -26.96875 L 23.671875 0 Z M 6 0 "/></g></g></g><g fill="#ffffff" fill-opacity="1"><g transform="translate(35.580292, 86.581059)"><g><path d="M 57.84375 -23.171875 L 20.6875 -23.171875 C 20.6875 -19.578125 21.847656 -16.914062 24.171875 -15.1875 C 26.503906 -13.457031 29.035156 -12.59375 31.765625 -12.59375 C 34.628906 -12.59375 36.894531 -12.972656 38.5625 -13.734375 C 40.226562 -14.503906 42.128906 -16.019531 44.265625 -18.28125 L 57.046875 -11.890625 C 51.710938 -2.960938 42.851562 1.5 30.46875 1.5 C 22.738281 1.5 16.109375 -1.144531 10.578125 -6.4375 C 5.054688 -11.738281 2.296875 -18.117188 2.296875 -25.578125 C 2.296875 -33.035156 5.054688 -39.425781 10.578125 -44.75 C 16.109375 -50.082031 22.738281 -52.75 30.46875 -52.75 C 38.59375 -52.75 45.203125 -50.398438 50.296875 -45.703125 C 55.398438 -41.003906 57.953125 -34.296875 57.953125 -25.578125 C 57.953125 -24.378906 57.914062 -23.578125 57.84375 -23.171875 Z M 21.1875 -32.96875 L 40.65625 -32.96875 C 40.257812 -35.632812 39.210938 -37.679688 37.515625 -39.109375 C 35.816406 -40.546875 33.632812 -41.265625 30.96875 -41.265625 C 28.039062 -41.265625 25.707031 -40.5 23.96875 -38.96875 C 22.238281 -37.4375 21.3125 -35.4375 21.1875 -32.96875 Z M 21.1875 -32.96875 "/></g></g></g><g fill="#ffffff" fill-opacity="1"><g transform="translate(86.42052, 86.581059)"><g><path d="M 57.84375 -23.171875 L 20.6875 -23.171875 C 20.6875 -19.578125 21.847656 -16.914062 24.171875 -15.1875 C 26.503906 -13.457031 29.035156 -12.59375 31.765625 -12.59375 C 34.628906 -12.59375 36.894531 -12.972656 38.5625 -13.734375 C 40.226562 -14.503906 42.128906 -16.019531 44.265625 -18.28125 L 57.046875 -11.890625 C 51.710938 -2.960938 42.851562 1.5 30.46875 1.5 C 22.738281 1.5 16.109375 -1.144531 10.578125 -6.4375 C 5.054688 -11.738281 2.296875 -18.117188 2.296875 -25.578125 C 2.296875 -33.035156 5.054688 -39.425781 10.578125 -44.75 C 16.109375 -50.082031 22.738281 -52.75 30.46875 -52.75 C 38.59375 -52.75 45.203125 -50.398438 50.296875 -45.703125 C 55.398438 -41.003906 57.953125 -34.296875 57.953125 -25.578125 C 57.953125 -24.378906 57.914062 -23.578125 57.84375 -23.171875 Z M 21.1875 -32.96875 L 40.65625 -32.96875 C 40.257812 -35.632812 39.210938 -37.679688 37.515625 -39.109375 C 35.816406 -40.546875 33.632812 -41.265625 30.96875 -41.265625 C 28.039062 -41.265625 25.707031 -40.5 23.96875 -38.96875 C 22.238281 -37.4375 21.3125 -35.4375 21.1875 -32.96875 Z M 21.1875 -32.96875 "/></g></g></g><g fill="#ffffff" fill-opacity="1"><g transform="translate(137.260747, 86.581059)"><g><path d="M 6 0 L 6 -85.921875 L 23.671875 -85.921875 L 23.671875 0 Z M 6 0 "/></g></g></g><g fill="#ffffff" fill-opacity="1"><g transform="translate(157.500583, 85.122725)"><g><path d="M 49.015625 -51.453125 L 41.699219 -51.453125 C 40.917969 -51.453125 40.308594 -50.910156 39.96875 -50.164062 L 25.980469 -17.679688 L 11.957031 -50.164062 C 11.652344 -50.875 11.042969 -51.453125 10.160156 -51.453125 L 2.945312 -51.453125 C 1.828125 -51.453125 1.355469 -50.773438 1.796875 -49.726562 L 23.847656 -0.8125 C 24.285156 0.203125 25.066406 0.777344 25.878906 0.777344 L 26.015625 0.777344 C 26.859375 0.777344 27.539062 0.203125 28.011719 -0.8125 L 50.097656 -49.757812 C 50.539062 -50.742188 50.132812 -51.453125 49.015625 -51.453125 Z M 49.015625 -51.453125 "/></g></g></g><g fill="#ffffff" fill-opacity="1"><g transform="translate(204.532714, 85.122725)"><g><path d="M 43.390625 -9.078125 L 15.71875 -9.078125 L 15.71875 -19.410156 L 37.226562 -19.410156 C 38.34375 -19.410156 39.019531 -20.019531 39.019531 -20.933594 L 39.019531 -26.589844 C 39.019531 -27.605469 38.34375 -28.183594 37.226562 -28.183594 L 15.71875 -28.183594 L 15.71875 -42.375 L 43.1875 -42.375 C 44.171875 -42.375 44.746094 -42.949219 44.746094 -43.933594 L 44.746094 -49.960938 C 44.746094 -50.875 44.171875 -51.453125 43.1875 -51.453125 L 7.65625 -51.453125 C 6.671875 -51.453125 6.132812 -50.945312 6.132812 -49.929688 L 6.132812 -1.492188 C 6.132812 -0.542969 6.671875 0 7.65625 0 L 43.898438 0 C 44.847656 0 45.457031 -0.574219 45.457031 -1.492188 L 45.457031 -7.179688 C 45.457031 -8.332031 44.644531 -9.078125 43.390625 -9.078125 Z M 43.390625 -9.078125 "/></g></g></g><g fill="#ffffff" fill-opacity="1"><g transform="translate(247.13258, 98.732585)"><g><path d="M 37.945312 -31.769531 C 43.964844 -34.542969 47.992188 -40.507812 47.992188 -47.3125 C 47.992188 -55.894531 41.816406 -63.328125 33.339844 -64.164062 C 32.03125 -64.324219 30.773438 -64.425781 29.359375 -64.425781 L 7.011719 -64.425781 C 6.542969 -64.425781 5.964844 -64.21875 5.964844 -63.851562 C 5.964844 -63.484375 6.125 -63.066406 6.488281 -62.59375 L 6.488281 -62.648438 L 18.789062 -40.71875 L 7.851562 -40.71875 L 7.851562 -15.125 C 7.851562 -13.765625 8.480469 -13.085938 9.785156 -13.085938 L 18.839844 -13.085938 C 20.097656 -13.085938 20.671875 -13.921875 20.671875 -14.917969 L 20.671875 -30.042969 L 24.703125 -30.042969 C 26.640625 -26.324219 30.042969 -21.039062 31.976562 -17.375 L 33.023438 -15.441406 C 33.808594 -14.027344 34.910156 -13.085938 36.53125 -13.085938 C 39.671875 -13.085938 42.65625 -13.03125 45.796875 -13.1875 C 46.683594 -13.1875 47.363281 -13.871094 47.363281 -14.707031 C 47.363281 -15.074219 47.261719 -15.441406 47.050781 -15.804688 Z M 30.566406 -54.117188 C 33.914062 -53.960938 36.636719 -51.132812 36.636719 -47.730469 C 36.636719 -45.011719 34.699219 -42.550781 32.03125 -41.871094 L 25.277344 -54.117188 Z M 30.566406 -54.117188 "/></g></g></g><g fill="#ffffff" fill-opacity="1"><g transform="translate(293.109315, 84.292352)"><g><path d="M 22.511719 0.789062 C 33.015625 0.789062 40.398438 -5.085938 40.398438 -14.375 C 40.398438 -23.203125 33.015625 -26.253906 25.007812 -28.847656 C 19.164062 -30.816406 14.472656 -32.71875 14.472656 -36.460938 C 14.472656 -39.578125 17.230469 -41.777344 21.988281 -41.777344 C 24.875 -41.777344 28.15625 -40.5625 30.390625 -38.460938 C 31.4375 -37.773438 32.324219 -37.511719 33.242188 -38.59375 L 36.691406 -42.53125 C 37.3125 -43.285156 37.28125 -44.203125 36.589844 -44.960938 C 33.703125 -48.339844 28.058594 -50.605469 22.414062 -50.605469 C 11.976562 -50.605469 5.382812 -44.992188 5.382812 -36.558594 C 5.382812 -28.484375 10.894531 -24.875 20.3125 -21.789062 C 27.042969 -19.492188 30.816406 -17.785156 30.816406 -14.242188 C 30.816406 -10.402344 27.761719 -8.074219 22.152344 -8.074219 C 17.984375 -8.074219 13.324219 -10.5 10.402344 -13.652344 C 9.617188 -14.375 8.796875 -14.503906 8.203125 -13.949219 L 3.9375 -9.679688 C 3.214844 -8.992188 3.152344 -8.171875 3.644531 -7.546875 C 7.253906 -2.625 14.964844 0.789062 22.511719 0.789062 Z M 22.511719 0.789062 "/></g></g></g><g fill="#ffffff" fill-opacity="1"><g transform="translate(331.640257, 86.539246)"><g><path d="M 15.84375 -28.121094 L 34.914062 -28.121094 C 35.921875 -28.121094 36.371094 -28.882812 36.371094 -29.714844 L 36.371094 -35.992188 C 36.371094 -37.136719 35.78125 -37.621094 34.847656 -37.515625 L 15.84375 -37.515625 L 15.84375 -42.023438 L 40.5 -42.023438 C 41.640625 -42.023438 42.230469 -42.785156 42.230469 -43.617188 L 42.230469 -49.722656 C 42.230469 -50.726562 41.78125 -51.488281 40.566406 -51.488281 L 7.144531 -51.488281 C 6.136719 -51.488281 5.617188 -50.933594 5.617188 -49.824219 L 5.617188 -1.457031 C 5.617188 -0.449219 6.308594 0 7.144531 0 L 41.46875 0 C 42.472656 0 42.996094 -0.484375 42.996094 -1.457031 L 42.996094 -7.765625 C 42.996094 -8.910156 42.683594 -9.464844 41.398438 -9.464844 L 15.84375 -9.464844 L 15.84375 -14.25 L 34.914062 -14.25 C 35.921875 -14.25 36.371094 -15.011719 36.371094 -15.84375 L 36.371094 -22.121094 C 36.371094 -23.265625 35.78125 -23.75 34.847656 -23.648438 L 15.84375 -23.648438 Z M 15.84375 -28.121094 "/></g></g></g></svg>